<svg width="500" height="303" viewBox="0 0 500 303" fill="none" xmlns="http://www.w3.org/2000/svg">
<path d="M77.4062 94.6545V109.799C83.7659 109.799 89.8651 112.326 94.3621 116.823C98.859 121.32 101.385 127.419 101.385 133.778C101.385 140.138 98.859 146.237 94.3621 150.734C89.8651 155.231 83.7659 157.758 77.4062 157.758V172.902H155.654V94.6545H77.4062Z" fill="#BBCBC2"/>
<path d="M77.4055 152.71C87.8608 152.71 96.3364 144.234 96.3364 133.779C96.3364 123.323 87.8608 114.848 77.4055 114.848C66.9503 114.848 58.4746 123.323 58.4746 133.779C58.4746 144.234 66.9503 152.71 77.4055 152.71Z" fill="#BBCBC2"/>
<path d="M364.316 152.731L333.605 133.802V280.178H364.316V152.731Z" fill="#BBCBC2"/>
<path d="M286.488 280.178H317.198V123.689L286.488 104.76V280.178Z" fill="#BBCBC2"/>
<path d="M270.08 94.6462L116.529 0V85.3995H165.75V183.84H116.529V280.178H270.08V94.6462Z" fill="#BBCBC2"/>
<path d="M380.721 162.844V280.177H396.707L440.038 199.406L380.721 162.844Z" fill="#F2F2F2"/>
<path d="M440.382 224.181C414.897 243.231 407.711 276.699 407.711 276.699C407.711 276.699 441.845 279.281 467.33 260.231C492.815 241.181 500.001 207.713 500.001 207.713C500.001 207.713 465.867 205.13 440.382 224.181Z" fill="#3F3D56"/>
<path d="M407.73 276.376C407.73 276.376 407.356 276.168 406.679 275.752C406.139 275.42 405.398 274.957 404.502 274.365C396.494 269.088 375.748 253.567 367.238 229.619C356.592 199.635 369.163 167.796 369.163 167.796C369.163 167.796 396.586 183.212 408.235 210.903C408.743 212.096 409.213 213.313 409.655 214.553C418.919 240.642 410.604 268.135 408.289 274.836C407.941 275.84 407.73 276.376 407.73 276.376Z" fill="#1C3F43"/>
<path d="M407.854 277.323L407.464 277.04C407.185 276.838 379.525 256.518 372.418 225.717C365.311 194.916 381.27 164.53 381.432 164.227L381.66 163.802L382.05 164.085C382.329 164.286 409.988 184.607 417.095 215.408C424.202 246.209 408.243 276.594 408.081 276.897L407.854 277.323ZM381.95 165.062C380.032 168.889 366.666 197.046 373.238 225.528C379.81 254.009 404.162 273.463 407.563 276.062C409.481 272.235 422.847 244.078 416.275 215.597C409.703 187.115 385.351 167.662 381.95 165.062Z" fill="#3F3D56"/>
<path opacity="0.1" d="M408.289 274.836C407.667 275.198 407.124 275.503 406.679 275.752C405.696 276.288 405.151 276.558 405.151 276.558C405.151 276.558 404.894 275.783 404.502 274.365C402.345 266.605 396.167 239.562 406.506 214.723C407.049 213.421 407.626 212.148 408.235 210.903C408.743 212.096 409.213 213.313 409.655 214.553C418.919 240.642 410.604 268.135 408.289 274.836Z" fill="black"/>
<path d="M451.019 233.095C438.797 262.472 408.111 277.643 408.111 277.643C408.111 277.643 397.24 245.184 409.462 215.806C421.684 186.429 452.37 171.258 452.37 171.258C452.37 171.258 463.24 203.718 451.019 233.095Z" fill="#1C3F43"/>
<path d="M451.749 172.391L408.021 276.63L408.797 276.955L452.524 172.717L451.749 172.391Z" fill="#3F3D56"/>
<path d="M495.359 286.274C495.359 290.213 472.697 293.817 435.23 296.583C428.417 297.084 421.115 297.557 413.373 298.004C406.68 298.388 399.668 298.749 392.335 299.088C385.229 299.411 377.851 299.71 370.202 299.987C346.039 300.866 319.332 301.497 290.957 301.813C284.073 301.888 277.094 301.948 270.022 301.991C262.66 302.033 255.212 302.053 247.68 302.053C110.889 302.053 0 294.99 0 286.274C0 277.557 110.889 270.494 247.68 270.494C306.568 270.494 360.653 271.805 403.159 273.988C404.724 274.07 406.273 274.15 407.806 274.228C407.815 274.234 407.825 274.236 407.836 274.235C461.379 277.131 495.359 281.449 495.359 286.274Z" fill="#3F3D56"/>
<path opacity="0.15" d="M495.359 286.274C495.359 290.213 472.697 293.817 435.23 296.583C428.417 297.084 421.115 297.557 413.373 298.004C406.68 298.388 399.668 298.749 392.335 299.088C385.229 299.411 377.851 299.71 370.202 299.987C346.039 300.866 319.332 301.497 290.957 301.813C284.073 301.888 277.094 301.948 270.022 301.991C262.66 302.033 255.212 302.053 247.68 302.053C110.889 302.053 0 294.99 0 286.274C0 277.557 110.889 270.494 247.68 270.494C306.568 270.494 360.653 271.805 403.159 273.988C404.724 274.07 406.273 274.15 407.806 274.228C407.815 274.234 407.825 274.236 407.836 274.235C461.379 277.131 495.359 281.449 495.359 286.274Z" fill="black"/>
<path d="M476.323 283.497C476.323 286.791 455.196 289.803 420.266 292.117C413.918 292.533 407.107 292.928 399.892 293.303C393.654 293.623 387.116 293.924 380.28 294.207C373.654 294.481 366.776 294.732 359.645 294.96C337.118 295.697 312.217 296.222 285.764 296.488C279.349 296.551 272.844 296.6 266.249 296.635C259.383 296.673 252.44 296.691 245.42 296.689C117.893 296.689 14.5137 290.783 14.5137 283.497C14.5137 276.21 117.893 270.304 245.42 270.304C273.619 270.304 300.636 270.594 325.616 271.124H325.679C349.305 271.625 371.109 272.34 390.368 273.228C391.828 273.295 393.272 273.361 394.701 273.425C394.71 273.432 394.72 273.435 394.731 273.434C403.552 273.863 411.806 274.326 419.412 274.822C419.496 274.826 419.581 274.835 419.665 274.839C454.956 277.157 476.323 280.182 476.323 283.497Z" fill="#3F3D56"/>
<path opacity="0.1" d="M419.413 274.822C416.287 295.146 396.578 288.335 372.729 288.335C347.534 288.335 326.963 295.936 325.68 271.124C349.305 271.625 371.11 272.34 390.369 273.228C391.829 273.295 393.273 273.361 394.702 273.425C394.71 273.432 394.721 273.435 394.731 273.434C403.553 273.863 411.807 274.326 419.413 274.822Z" fill="black"/>
<path d="M133.475 268.639C133.475 275.966 129.119 278.525 123.746 278.525C123.622 278.525 123.497 278.523 123.374 278.52C123.125 278.515 122.878 278.503 122.634 278.486C117.785 278.143 114.018 275.453 114.018 268.639C114.018 261.589 123.027 252.691 123.706 252.032L123.707 252.031C123.733 252.005 123.746 251.992 123.746 251.992C123.746 251.992 133.475 261.313 133.475 268.639Z" fill="#1C3F43"/>
<path d="M123.391 277.404L126.949 272.432L123.382 277.95L123.373 278.52C123.124 278.515 122.877 278.503 122.633 278.486L123.016 271.156L123.014 271.099L123.02 271.089L123.057 270.396L119.48 264.865L123.067 269.877L123.076 270.024L123.366 264.486L120.304 258.77L123.403 263.514L123.705 252.032L123.706 251.992V252.031L123.656 261.085L126.704 257.495L123.643 261.865L123.563 266.824L126.409 262.064L123.551 267.553L123.506 270.31L127.637 263.686L123.49 271.272L123.391 277.404Z" fill="#3F3D56"/>
<path d="M325.611 263.516C325.611 235.635 346.706 213.033 372.728 213.033C398.75 213.033 419.845 235.635 419.845 263.516C419.845 291.396 398.75 283.288 372.728 283.288C346.706 283.288 325.611 291.396 325.611 263.516Z" fill="#3F3D56"/>
<path d="M64.5269 230.255H63.6855V287.124H64.5269V230.255Z" fill="#3F3D56"/>
<path d="M64.1065 238.297C68.548 238.297 72.1485 234.697 72.1485 230.255C72.1485 225.814 68.548 222.213 64.1065 222.213C59.665 222.213 56.0645 225.814 56.0645 230.255C56.0645 234.697 59.665 238.297 64.1065 238.297Z" fill="#3F3D56"/>
<path d="M64.1067 265.305C64.1067 265.305 62.9579 240.595 39.4062 243.467Z" fill="#3F3D56"/>
<path d="M298.274 239.612C298.484 240.355 298.718 241.092 298.969 241.824C297.845 240.72 296.743 239.586 295.62 238.489C296.071 238.629 296.52 238.769 296.945 238.936C297.408 239.12 297.853 239.346 298.274 239.612V239.612ZM292.834 235.925C286.214 230.169 278.544 225.713 271.76 220.133C275.465 221.956 279.068 224.079 282.642 226.115C286.882 228.531 291.172 230.852 295.513 233.08C294.806 234.188 293.897 235.153 292.834 235.925V235.925ZM295.665 221.432C295.771 221.324 295.876 221.216 295.982 221.107C295.985 221.924 295.991 222.689 296.001 223.383C295.408 223.186 294.817 222.985 294.227 222.778C294.734 222.36 295.214 221.91 295.665 221.432V221.432ZM237.355 237.014C240.083 233.933 242.453 230.553 244.419 226.938C247.047 231.529 251.317 234.839 254.95 238.685C249.097 237.912 243.236 237.275 237.355 237.014Z" fill="url(#paint0_linear_78_354)"/>
<path d="M49.3359 279.577C49.3359 286.904 44.9807 289.462 39.6074 289.462C39.4829 289.462 39.3585 289.461 39.2349 289.458C38.986 289.453 38.7389 289.441 38.4953 289.424C33.6458 289.081 29.8789 286.391 29.8789 279.577C29.8789 272.527 38.8884 263.629 39.5671 262.969L39.568 262.969C39.594 262.943 39.6074 262.93 39.6074 262.93C39.6074 262.93 49.3359 272.251 49.3359 279.577Z" fill="#1C3F43"/>
<path d="M39.2539 288.341L42.8122 283.37L39.245 288.888L39.236 289.458C38.9871 289.453 38.74 289.441 38.4964 289.424L38.8797 282.094L38.877 282.037L38.8833 282.027L38.92 281.334L35.3438 275.803L38.9307 280.815L38.9397 280.962L39.2289 275.424L36.1675 269.708L39.2665 274.452L39.5682 262.969L39.5691 262.93V262.969L39.519 272.023L42.5669 268.433L39.5064 272.803L39.4259 277.761L42.2723 273.002L39.4142 278.491L39.3695 281.248L43.4999 274.624L39.3533 282.21L39.2539 288.341Z" fill="#3F3D56"/>
<path d="M54.2694 221.282C56.5928 221.282 58.4762 219.398 58.4762 217.075C58.4762 214.751 56.5928 212.868 54.2694 212.868C51.946 212.868 50.0625 214.751 50.0625 217.075C50.0625 219.398 51.946 221.282 54.2694 221.282Z" fill="#1C3F43"/>
<path d="M324.766 158.192C324.766 158.192 340.028 154.813 341.71 168.275C343.393 181.737 333.605 184.278 333.605 184.278L327.407 185.944L303.428 179.634L306.793 169.958L324.766 158.192Z" fill="#2F2E41"/>
<path d="M319.266 158.934C330.656 158.934 339.89 149.701 339.89 138.311C339.89 126.921 330.656 117.687 319.266 117.687C307.876 117.687 298.643 126.921 298.643 138.311C298.643 149.701 307.876 158.934 319.266 158.934Z" fill="#2F2E41"/>
<path d="M246.797 181.136L250.987 181.979L265.234 203.046L258.949 203.888L246.797 181.136Z" fill="#2F2E41"/>
<path d="M145.441 266.609C146.571 270.328 147.963 273.961 149.606 277.483C154.328 276.495 158.974 275.171 163.508 273.522C163.648 273.471 160.908 269.887 160.62 269.594C159.535 268.49 158.129 267.199 156.694 266.575C155.247 265.945 153.464 266.426 151.915 266.505C149.759 266.615 147.601 266.65 145.441 266.609Z" fill="#FBBEBE"/>
<path d="M156.718 272.237C154.356 271.498 152.921 269.122 151.96 266.83C151 264.538 150.225 262.038 148.403 260.356C147.705 260.39 147.142 260.957 146.797 261.568C146.451 262.179 146.246 262.868 145.847 263.445C145.087 264.543 143.751 265.074 142.796 266.005C141.794 266.981 141.246 268.362 140.21 269.3C138.907 270.479 137.066 270.771 135.358 271.161C132.715 271.765 130.162 272.711 127.765 273.976C126.882 274.508 125.937 274.932 124.952 275.237C123.868 275.445 122.758 275.482 121.663 275.346L114.108 274.808C113.436 274.722 112.754 274.751 112.092 274.896C110.539 275.332 109.575 277.066 109.689 278.683C109.803 280.3 110.809 281.749 112.079 282.747C113.394 283.688 114.845 284.423 116.382 284.927C122.962 287.411 129.737 289.347 136.637 290.713L136.641 292.208C141.438 294.568 146.713 295.796 152.06 295.798C152.455 295.828 152.852 295.759 153.214 295.598C153.744 295.311 153.989 294.691 154.186 294.119C155.998 288.818 157.059 283.29 157.336 277.696C157.471 276.277 157.361 274.847 157.011 273.466C156.6 272.105 158.016 272.677 156.706 272.145" fill="#2F2E41"/>
<path d="M301.604 243.759C279.207 245.1 257.07 238.544 234.644 237.844C231.856 237.756 229.037 237.763 226.315 238.374C223.435 239.021 220.75 240.324 218.072 241.57C206.045 247.166 193.602 251.802 181.174 256.43L166.898 261.748C164.045 262.81 161.088 263.889 158.052 263.704C156.691 263.621 155.02 263.415 154.254 264.549C151.931 267.99 153.029 273.045 154.563 276.907C155.061 278.16 155.904 279.513 157.239 279.655C158.178 279.756 159.052 279.212 159.965 278.967C162.564 278.271 165.155 280.019 167.829 280.304C171.133 280.655 174.201 278.773 177.32 277.621C182.492 275.709 188.147 275.769 193.583 274.864C202.699 273.346 211.148 269.113 219.046 264.29C222.053 262.454 225.096 260.487 228.551 259.815C232.523 259.043 236.603 260.066 240.498 261.168C249.784 263.796 258.927 266.909 267.887 270.495C272.605 272.383 277.289 274.408 282.198 275.714C292.817 278.509 304.049 277.854 314.271 273.844C317.856 272.427 321.751 269.922 321.957 266.054C322.074 263.849 320.364 261.906 319.221 260.02C318.488 258.811 317.754 257.601 316.956 256.434C313.094 250.788 308.407 243.352 301.604 243.759Z" fill="#2F2E41"/>
<path opacity="0.1" d="M301.604 243.759C279.207 245.1 257.07 238.544 234.644 237.844C231.856 237.756 229.037 237.763 226.315 238.374C223.435 239.021 220.75 240.324 218.072 241.57C206.045 247.166 193.602 251.802 181.174 256.43L166.898 261.748C164.045 262.81 161.088 263.889 158.052 263.704C156.691 263.621 155.02 263.415 154.254 264.549C151.931 267.99 153.029 273.045 154.563 276.907C155.061 278.16 155.904 279.513 157.239 279.655C158.178 279.756 159.052 279.212 159.965 278.967C162.564 278.271 165.155 280.019 167.829 280.304C171.133 280.655 174.201 278.773 177.32 277.621C182.492 275.709 188.147 275.769 193.583 274.864C202.699 273.346 211.148 269.113 219.046 264.29C222.053 262.454 225.096 260.487 228.551 259.815C232.523 259.043 236.603 260.066 240.498 261.168C249.784 263.796 258.927 266.909 267.887 270.495C272.605 272.383 277.289 274.408 282.198 275.714C292.817 278.509 304.049 277.854 314.271 273.844C317.856 272.427 321.751 269.922 321.957 266.054C322.074 263.849 320.364 261.906 319.221 260.02C318.488 258.811 317.754 257.601 316.956 256.434C313.094 250.788 308.407 243.352 301.604 243.759Z" fill="black"/>
<path d="M188.443 267.7C191.949 268.896 195.486 269.996 199.053 271C201.05 267.721 204.786 265.44 205.637 261.692C205.69 261.529 205.69 261.353 205.638 261.19C205.547 261.03 205.406 260.903 205.236 260.831C202.681 259.415 199.844 258.583 196.928 258.396C194.626 258.251 193.576 260.654 192.532 262.344C192.109 263.028 189.381 268.02 188.443 267.7Z" fill="#FBBEBE"/>
<path d="M193.357 265.307C191.287 264.873 189.26 263.76 188.203 261.918C187.708 261.055 187.181 259.892 186.192 259.957C185.275 260.017 184.853 261.112 184.646 262.014C183.873 265.389 183.113 268.79 181.755 271.973C180.397 275.156 178.389 278.145 175.556 280.115C174.257 281.019 172.808 281.694 171.539 282.638C170.398 283.487 169.403 284.552 168.142 285.208C167.299 285.595 166.429 285.919 165.538 286.18C164.228 286.636 162.976 287.245 161.808 287.995C160.781 288.592 159.911 289.423 159.268 290.422C158.952 290.925 158.768 291.5 158.731 292.093C158.695 292.686 158.807 293.279 159.059 293.818C159.329 294.261 159.691 294.642 160.119 294.936C160.548 295.229 161.034 295.429 161.545 295.521C162.566 295.697 163.607 295.723 164.635 295.598C168.719 295.297 172.797 294.934 176.876 294.57C178.602 294.459 180.316 294.22 182.007 293.856C182.9 293.641 183.776 293.355 184.666 293.126C186.191 292.733 187.755 292.505 189.329 292.447C189.787 292.408 190.247 292.45 190.69 292.571C191.635 292.88 192.305 293.82 193.281 294.011C193.906 294.07 194.537 293.986 195.125 293.764C198.064 292.96 201.152 292.982 204.193 292.818C205.533 292.746 207.101 292.491 207.716 291.292C208.482 289.796 207.211 288.124 206.705 286.52C206.452 285.495 206.311 284.446 206.284 283.391C206.051 280.784 205.285 278.252 204.035 275.951C202.996 274.043 201.576 271.932 202.307 269.883C202.555 269.188 203.048 268.541 202.999 267.804C202.783 264.568 195.234 265.7 193.357 265.307Z" fill="#2F2E41"/>
<path d="M268.017 207.827C264.048 206.078 260.869 202.92 259.093 198.962C258.719 198.112 258.412 197.224 258.051 196.366C256.877 193.514 255.05 190.977 252.718 188.959C252.135 188.464 251.451 187.992 250.738 188.121C250.054 188.246 249.516 188.922 249.282 189.681C249.081 190.462 249.031 191.274 249.134 192.074C249.333 193.959 249.658 195.829 250.105 197.672L251.19 202.618C251.324 203.378 251.551 204.12 251.866 204.825C252.334 205.658 252.951 206.397 253.688 207.005C254.679 207.918 255.687 208.807 256.71 209.672C258.132 211.036 259.986 211.861 261.952 212.002C266.4 212.827 270.923 214.015 274.677 216.918C274.635 216.886 274.661 213.601 274.596 213.224C274.424 212.229 274.29 211.243 273.642 210.57C272.187 209.059 269.79 208.614 268.017 207.827Z" fill="#FBBEBE"/>
<path opacity="0.1" d="M268.017 207.827C264.048 206.078 260.869 202.92 259.093 198.962C258.719 198.112 258.412 197.224 258.051 196.366C256.877 193.514 255.05 190.977 252.718 188.959C252.135 188.464 251.451 187.992 250.738 188.121C250.054 188.246 249.516 188.922 249.282 189.681C249.081 190.462 249.031 191.274 249.134 192.074C249.333 193.959 249.658 195.829 250.105 197.672L251.19 202.618C251.324 203.378 251.551 204.12 251.866 204.825C252.334 205.658 252.951 206.397 253.688 207.005C254.679 207.918 255.687 208.807 256.71 209.672C258.132 211.036 259.986 211.861 261.952 212.002C266.4 212.827 270.923 214.015 274.677 216.918C274.635 216.886 274.661 213.601 274.596 213.224C274.424 212.229 274.29 211.243 273.642 210.57C272.187 209.059 269.79 208.614 268.017 207.827Z" fill="black"/>
<path d="M313.631 169.971C316.639 169.971 319.078 167.518 319.078 164.493C319.078 161.468 316.639 159.016 313.631 159.016C310.622 159.016 308.184 161.468 308.184 164.493C308.184 167.518 310.622 169.971 313.631 169.971Z" fill="#2F2E41"/>
<path d="M310.259 161.184C308.781 161.02 307.138 160.898 305.953 161.803C305.325 162.359 304.822 163.043 304.48 163.809C303.341 165.947 302.218 168.126 301.645 170.483C301.158 172.482 301.078 174.572 300.476 176.539C299.358 180.188 296.497 183.268 296.17 187.071C296.023 188.773 296.308 190.766 295.066 191.932C294.76 192.19 294.432 192.422 294.088 192.627C293.226 193.203 292.496 193.954 291.943 194.831C291.479 195.57 291.121 196.418 290.421 196.937C289.313 197.758 287.474 197.674 286.928 198.945C286.367 200.25 287.791 201.702 287.461 203.085C287.192 204.211 285.937 204.727 285.072 205.492C283.965 206.473 283.458 207.952 282.996 209.361C281.174 209.706 279.299 209.652 277.499 209.203C275.7 208.755 274.019 207.922 272.572 206.762C274.093 210.507 274.126 214.64 274.192 218.685C274.213 219.997 274.172 221.47 273.236 222.384C277.572 222.477 281.802 223.652 286.034 224.608C287.884 225.026 289.892 225.389 291.617 224.598C292.585 224.08 293.451 223.391 294.173 222.564C296.476 220.23 298.891 217.683 299.454 214.444C299.77 212.629 299.464 210.767 299.548 208.927C299.651 206.646 300.348 204.443 300.945 202.241C302.167 197.733 302.985 193.126 303.392 188.474C303.642 185.603 306.122 183.292 307.427 180.726C309.892 175.882 312.41 170.838 312.596 165.4C312.658 163.582 312.058 161.383 310.259 161.184Z" fill="#2F2E41"/>
<path opacity="0.1" d="M310.259 161.184C308.781 161.02 307.138 160.898 305.953 161.803C305.325 162.359 304.822 163.043 304.48 163.809C303.341 165.947 302.218 168.126 301.645 170.483C301.158 172.482 301.078 174.572 300.476 176.539C299.358 180.188 296.497 183.268 296.17 187.071C296.023 188.773 296.308 190.766 295.066 191.932C294.76 192.19 294.432 192.422 294.088 192.627C293.226 193.203 292.496 193.954 291.943 194.831C291.479 195.57 291.121 196.418 290.421 196.937C289.313 197.758 287.474 197.674 286.928 198.945C286.367 200.25 287.791 201.702 287.461 203.085C287.192 204.211 285.937 204.727 285.072 205.492C283.965 206.473 283.458 207.952 282.996 209.361C281.174 209.706 279.299 209.652 277.499 209.203C275.7 208.755 274.019 207.922 272.572 206.762C274.093 210.507 274.126 214.64 274.192 218.685C274.213 219.997 274.172 221.47 273.236 222.384C277.572 222.477 281.802 223.652 286.034 224.608C287.884 225.026 289.892 225.389 291.617 224.598C292.585 224.08 293.451 223.391 294.173 222.564C296.476 220.23 298.891 217.683 299.454 214.444C299.77 212.629 299.464 210.767 299.548 208.927C299.651 206.646 300.348 204.443 300.945 202.241C302.167 197.733 302.985 193.126 303.392 188.474C303.642 185.603 306.122 183.292 307.427 180.726C309.892 175.882 312.41 170.838 312.596 165.4C312.658 163.582 312.058 161.383 310.259 161.184Z" fill="black"/>
<path d="M305.157 248.476C300.493 246.257 297.079 242.118 293.308 238.577C286.107 231.816 277.302 227.029 269.732 220.691C264.713 216.489 260.225 211.596 254.711 208.078C249.854 204.986 244.349 203.057 238.624 202.442C237.968 202.329 237.296 202.363 236.654 202.54C235.931 202.86 235.301 203.358 234.823 203.988C232.38 206.745 230.209 209.731 228.339 212.905C218.743 229.194 205.113 242.891 193.821 258.04C193.46 258.397 193.246 258.875 193.221 259.382C193.196 259.888 193.362 260.385 193.686 260.775L195.983 265.277C197.268 267.795 199.328 270.729 202.099 270.229C203.365 270 204.374 269.068 205.307 268.177L215.619 258.319L226.431 247.984C232.765 241.929 239.208 235.733 243.338 227.987C246.566 233.584 252.292 237.248 256.22 242.372C257.715 244.321 258.935 246.465 260.269 248.528C262.408 251.836 264.84 254.94 267.268 258.039L279.67 273.869C281.361 276.028 283.099 278.23 285.412 279.694C288.349 281.553 291.921 282.043 295.379 282.353C300.038 282.77 304.715 282.939 309.392 282.86C312.958 282.799 316.635 282.565 319.835 280.981C323.034 279.398 325.663 276.147 325.497 272.565C325.41 270.702 324.6 268.955 323.709 267.32C319.279 259.192 313.489 252.44 305.157 248.476Z" fill="#2F2E41"/>
<path d="M316.983 172.499C319.297 172.499 321.174 170.612 321.174 168.285C321.174 165.958 319.297 164.072 316.983 164.072C314.669 164.072 312.793 165.958 312.793 168.285C312.793 170.612 314.669 172.499 316.983 172.499Z" fill="#2F2E41"/>
<path d="M316.057 165.119C317.078 166.923 317.079 169.168 316.517 171.165C315.955 173.162 314.882 174.969 313.82 176.749C312.775 178.501 311.718 180.269 310.316 181.747C316.784 182.057 323.054 179.52 328.762 176.446C333.354 173.973 337.936 170.92 340.387 166.298C338.954 166.729 337.374 166.304 336.106 165.507C334.874 164.648 333.769 163.619 332.825 162.451L329.578 158.798C328.815 158.003 328.145 157.123 327.581 156.177C326.878 154.882 326.579 153.406 326.724 151.94C325.434 153.29 323.992 154.486 322.427 155.505C320.108 157.015 317.551 158.11 315.227 159.61C314.403 160.142 312.57 160.998 313.042 162.075C313.502 163.126 315.403 163.965 316.057 165.119Z" fill="#FBBEBE"/>
<path opacity="0.1" d="M316.057 165.119C317.078 166.923 317.079 169.168 316.517 171.165C315.955 173.162 314.882 174.969 313.82 176.749C312.775 178.501 311.718 180.269 310.316 181.747C316.784 182.057 323.054 179.52 328.762 176.446C333.354 173.973 337.936 170.92 340.387 166.298C338.954 166.729 337.374 166.304 336.106 165.507C334.874 164.648 333.769 163.619 332.825 162.451L329.578 158.798C328.815 158.003 328.145 157.123 327.581 156.177C326.878 154.882 326.579 153.406 326.724 151.94C325.434 153.29 323.992 154.486 322.427 155.505C320.108 157.015 317.551 158.11 315.227 159.61C314.403 160.142 312.57 160.998 313.042 162.075C313.502 163.126 315.403 163.965 316.057 165.119Z" fill="black"/>
<path d="M316.145 165.757C314.929 167.801 314.669 170.215 316.145 172.077C316.329 172.309 317.011 173.748 317.306 173.761C317.591 173.737 317.856 173.603 318.044 173.387C319.615 171.952 320.765 170.12 322.145 168.498C323.525 166.876 325.266 165.398 327.364 165.071C329.896 164.677 332.34 166.019 334.556 167.313C335.477 167.851 336.431 168.421 337.011 169.319C337.478 170.162 337.753 171.098 337.818 172.059C338.583 177.825 338.566 183.664 338.548 189.481C338.535 193.686 338.519 197.92 337.723 202.048C337.312 204.182 336.695 206.276 336.403 208.43C336.188 210.33 336.101 212.243 336.143 214.155L336.136 222.161C336.083 223.631 336.187 225.102 336.447 226.55C336.827 228.305 337.657 229.924 338.212 231.631C338.784 233.592 339.175 235.602 339.381 237.635L340.477 245.924C340.822 248.535 341.077 251.391 339.499 253.493C338.785 254.443 337.847 255.203 337.123 256.146C334.413 259.675 335.283 264.71 334.152 269.022C333.26 272.179 331.427 274.99 328.897 277.078C326.96 278.724 324.459 280.018 321.966 279.555C318.6 278.93 316.578 275.421 315.66 272.105C314.743 268.789 314.408 265.18 312.42 262.378C310.796 260.091 308.281 258.652 306.006 257.019C303.732 255.387 301.51 253.282 301.015 250.516C300.798 249.308 300.933 248.064 300.805 246.843C300.624 245.297 300.03 243.827 299.087 242.589C298.144 241.35 296.885 240.388 295.442 239.802C293.719 239.132 291.591 238.892 290.621 237.312C293.126 235.9 294.789 233.291 295.665 230.541C296.541 227.791 296.72 224.873 296.892 221.991L297.468 212.358C297.725 208.053 297.842 203.786 299.738 199.918C300.585 198.188 301.64 196.569 302.522 194.858C303.689 192.456 304.686 189.975 305.504 187.433C306.879 183.486 308.253 179.538 309.478 175.542C310.062 173.637 310.623 171.697 311.664 170.001C312.704 168.305 314.197 166.123 316.145 165.757Z" fill="#1C3F43"/>
<path d="M294.754 228.339L297.302 228.431L297.844 224.579C297.916 223.808 298.098 223.052 298.384 222.333C298.804 221.573 299.295 220.854 299.85 220.186C302.358 216.641 302.176 211.935 302.797 207.63C303.626 201.888 306.025 196.512 308.397 191.223L313.345 180.194C314.332 178.322 314.804 176.221 314.714 174.107C314.757 172.402 315.263 166.198 315.306 164.493C315.323 163.862 313.915 164.213 313.63 163.65C313.01 162.426 312.161 165.747 311.002 166.475C309.843 167.204 309.203 168.523 308.711 169.806C307.645 172.584 306.993 175.506 305.999 178.311C305.006 181.116 303.616 183.872 301.38 185.826C300.365 186.713 299.194 187.417 298.235 188.366C295.156 191.41 294.856 196.218 294.748 200.558C294.684 203.138 294.185 228.339 294.754 228.339Z" fill="#2F2E41"/>
<path d="M331.451 161.158C328.975 162.131 327.617 164.816 326.922 167.396C326.226 169.976 325.943 172.725 324.613 175.04C321.504 180.45 313.578 182.027 311.385 187.873C310.668 189.786 310.699 191.885 310.505 193.92C310.108 198.109 308.73 202.156 308.323 206.344C308.008 209.589 308.28 212.859 308.552 216.107L311.322 249.146C311.723 253.918 311.712 259.045 310.493 263.674C313.297 264.221 316.213 263.489 318.815 262.303C321.417 261.116 323.792 259.488 326.297 258.106C330.603 255.73 335.352 254.047 339.124 250.882C339.806 250.351 340.391 249.704 340.852 248.972C341.607 247.666 341.669 246.085 342.029 244.618C342.355 243.448 342.77 242.304 343.271 241.196C344.651 237.867 345.854 234.467 346.874 231.01C347.575 228.716 348.128 226.379 348.531 224.015C348.833 222.132 348.997 220.229 349.16 218.328C349.36 215.353 349.952 212.417 350.918 209.595C353.327 202.867 354.692 195.81 354.964 188.668C355.045 187.637 354.975 186.599 354.755 185.587C354.427 184.333 353.687 183.237 353.08 182.093C351.929 179.925 351.237 177.538 350.151 175.336C347.696 170.361 343.361 166.588 338.819 163.427C336.589 161.874 333.977 160.164 331.451 161.158Z" fill="#2F2E41"/>
<path d="M273.536 215.056C271.619 213.94 269.702 212.738 268.26 211.048C267.568 210.238 266.998 209.329 266.295 208.529C264.586 206.584 262.163 205.378 259.659 204.747C257.155 204.117 254.55 204.021 251.969 203.999C250.242 203.985 248.472 204.009 246.855 204.62C245.239 205.23 243.781 206.547 243.468 208.254C243.092 210.309 244.435 212.312 246.047 213.63C247.546 214.854 249.312 215.711 251.201 216.132C252.743 216.402 254.298 216.584 255.86 216.678C265.033 217.638 273.216 222.631 281.254 227.177C288.313 231.169 295.51 234.902 302.844 238.375C303.135 236.179 303.256 233.963 303.206 231.748C303.169 230.094 303.087 227.572 301.524 226.601C299.704 225.469 296.706 225.209 294.653 224.536C289.926 222.987 285.311 221.119 280.836 218.947C278.356 217.742 275.922 216.446 273.536 215.056Z" fill="#FBBEBE"/>
<path d="M313.631 163.229C322.657 163.229 329.973 155.872 329.973 146.797C329.973 137.722 322.657 130.365 313.631 130.365C304.606 130.365 297.289 137.722 297.289 146.797C297.289 155.872 304.606 163.229 313.631 163.229Z" fill="#FBBEBE"/>
<path d="M336.123 179.788C334.664 181.49 333.933 183.682 332.952 185.702C330.934 189.857 327.769 193.424 326.184 197.765C324.512 202.345 324.568 207.792 321.291 211.389C320.721 212.015 320.033 212.618 319.868 213.45C319.77 213.944 319.872 214.473 319.701 214.946C319.232 216.253 317.093 216.319 316.693 217.649C316.576 218.038 316.642 218.47 316.498 218.849C316.17 219.71 315.033 219.841 314.274 220.356C312.688 221.432 313.007 223.934 311.875 225.485C310.98 226.712 309.291 227.124 307.792 226.916C306.292 226.707 304.919 225.99 303.553 225.333C303.084 225.069 302.565 224.906 302.029 224.854C301.395 224.876 300.783 225.085 300.269 225.455C297.25 227.375 295.833 231.176 295.854 234.768C295.875 238.359 297.109 241.819 298.372 245.178C298.545 245.745 298.828 246.272 299.205 246.729C300.206 247.787 301.949 247.616 303.278 247.027C304.608 246.439 305.815 245.512 307.244 245.253C309.773 244.795 312.245 246.533 314.81 246.39C316.69 246.285 318.353 245.192 319.914 244.135C322.407 242.448 324.945 240.718 326.778 238.324C327.9 236.858 328.722 235.186 329.7 233.619C330.958 231.697 332.336 229.856 333.827 228.107L343.25 216.573C345.515 214.108 347.074 211.079 347.764 207.804C348.66 204.73 349.562 201.62 349.717 198.421C349.844 195.787 349.462 193.157 349.032 190.556C348.609 187.996 348.128 185.407 347.003 183.071C344.956 178.819 339.972 175.3 336.123 179.788Z" fill="#2F2E41"/>
<path d="M341.608 131.78C352.998 131.78 362.231 122.547 362.231 111.157C362.231 99.7667 352.998 90.5332 341.608 90.5332C330.218 90.5332 320.984 99.7667 320.984 111.157C320.984 122.547 330.218 131.78 341.608 131.78Z" fill="#2F2E41"/>
<path d="M359.397 128.234C356.728 130.163 353.635 131.425 350.378 131.914C347.121 132.403 343.794 132.105 340.676 131.045C337.558 129.985 334.739 128.193 332.455 125.82C330.171 123.447 328.489 120.562 327.549 117.405C327.905 120.234 328.843 122.958 330.305 125.406C331.766 127.854 333.72 129.972 336.041 131.627C338.363 133.282 341.002 134.437 343.793 135.02C346.584 135.604 349.465 135.602 352.255 135.015C355.045 134.429 357.684 133.27 360.003 131.613C362.323 129.955 364.274 127.834 365.733 125.385C367.191 122.935 368.126 120.21 368.479 117.381C368.831 114.552 368.593 111.68 367.78 108.948C368.242 112.619 367.707 116.347 366.232 119.74C364.757 123.133 362.396 126.067 359.397 128.234V128.234Z" fill="#2F2E41"/>
<path d="M324.766 156.872C333.119 156.872 339.89 150.101 339.89 141.748C339.89 133.395 333.119 126.624 324.766 126.624C316.414 126.624 309.643 133.395 309.643 141.748C309.643 150.101 316.414 156.872 324.766 156.872Z" fill="#2F2E41"/>
<path d="M312.048 146.56C319.451 146.56 325.453 141.867 325.453 136.077C325.453 130.287 319.451 125.593 312.048 125.593C304.644 125.593 298.643 130.287 298.643 136.077C298.643 141.867 304.644 146.56 312.048 146.56Z" fill="#2F2E41"/>
<path d="M317.197 154.947C318.099 154.214 317.938 152.524 316.839 151.172C315.739 149.82 314.117 149.318 313.216 150.051C312.315 150.784 312.475 152.474 313.575 153.826C314.674 155.178 316.296 155.68 317.197 154.947Z" fill="#FBBEBE"/>
<path d="M300.486 286.308C300.486 293.635 296.131 296.193 290.758 296.193C290.633 296.193 290.509 296.192 290.385 296.189C290.136 296.184 289.889 296.172 289.646 296.155C284.796 295.812 281.029 293.122 281.029 286.308C281.029 279.258 290.039 270.36 290.718 269.7L290.718 269.7C290.744 269.674 290.758 269.661 290.758 269.661C290.758 269.661 300.486 278.982 300.486 286.308Z" fill="#1C3F43"/>
<path d="M290.404 295.072L293.963 290.101L290.395 295.619L290.386 296.189C290.137 296.184 289.89 296.172 289.647 296.155L290.03 288.825L290.027 288.768L290.034 288.758L290.07 288.065L286.494 282.534L290.081 287.546L290.09 287.693L290.379 282.154L287.318 276.439L290.417 281.183L290.719 269.7L290.72 269.661V269.7L290.669 278.754L293.717 275.164L290.657 279.534L290.576 284.492L293.423 279.733L290.565 285.222L290.52 287.979L294.65 281.355L290.504 288.941L290.404 295.072Z" fill="#3F3D56"/>
<defs>
<linearGradient id="paint0_linear_78_354" x1="268.162" y1="241.824" x2="268.162" y2="220.133" gradientUnits="userSpaceOnUse">
<stop stop-color="#808080" stop-opacity="0.25"/>
<stop offset="0.53514" stop-color="#808080" stop-opacity="0.12"/>
<stop offset="1" stop-color="#808080" stop-opacity="0.1"/>
</linearGradient>
</defs>
</svg>
