<svg width="55" height="69" viewBox="0 0 55 69" fill="none" xmlns="http://www.w3.org/2000/svg">
<path d="M54.7513 42.5513C46.8943 61.5289 28.0718 50.048 28.0718 50.048C22.2967 61.4039 12.757 68.7062 1.74868 68.7478C-0.547107 68.7478 -0.618405 65.3605 1.74868 65.3605C10.9318 65.3188 18.9314 59.4326 24.1647 50.0757C18.304 52.283 7.25285 53.949 1.12126 38.6642C16.6641 32.4309 23.8082 40.2191 26.546 44.9808C27.9577 41.5934 28.9701 37.9146 29.6261 33.9164C29.6261 33.9164 9.70549 36.9567 8.30806 20.2975C25.2912 13.6478 30.0681 30.9455 30.0681 30.9455C30.2962 28.6271 30.5387 23.6433 30.5387 23.5322C30.5387 23.5322 15.3808 13.3007 25.1058 0.598145C42.8732 6.56766 33.8611 23.1435 33.8611 23.1435C33.9324 23.3656 33.9324 26.4475 33.8611 27.7803C33.8611 27.7803 40.3064 15.4248 53.3111 19.7978C52.7122 38.4005 33.0769 34.5689 33.0769 34.5689C32.4494 38.3727 31.4798 41.9822 30.225 45.3279C30.225 45.3279 42.0604 32.5836 54.7513 42.5513Z" fill="#1C3F43"/>
</svg>
