<svg width="500" height="316" viewBox="0 0 500 316" fill="none" xmlns="http://www.w3.org/2000/svg">
<path d="M124.091 243.51H0V44.6521H285.566L124.091 243.51Z" fill="#BBCBC2"/>
<path d="M499.999 51.9211V315.161H156.801L345.274 51.9211H499.999Z" fill="#BBCBC2"/>
<path d="M83.6826 154.123C87.357 148.42 83.5434 139.42 75.1647 134.022C66.786 128.624 57.015 128.871 53.3406 134.574C49.6662 140.278 53.4798 149.277 61.8585 154.675C70.2372 160.073 80.0082 159.826 83.6826 154.123Z" fill="#1C3F43"/>
<path d="M68.5089 144.351C68.5089 144.351 68.2597 149.263 67.7872 157.508C66.7488 175.582 64.6096 209.673 61.5567 243.121C59.0437 270.67 55.9128 297.788 52.268 315.161H48.4414L58.457 229.927L66.998 157.233L68.5089 144.351Z" fill="#1C3F43"/>
<path d="M95.6646 315.161H0L0.155765 131.365C33.2347 170.8 50.7944 203.313 58.4579 229.927C59.7133 234.27 60.7478 238.673 61.5576 243.12C62.3789 247.634 62.9165 252.195 63.1672 256.776L110.353 183.531C137.098 256.215 121.615 294.782 95.6646 315.161Z" fill="#3F3D56"/>
<path d="M324.086 111.316C320.322 122.459 314.552 132.612 302.79 132.612C291.029 132.612 282.158 123.059 281.495 111.316C280.648 96.3119 290.758 89.9588 302.79 90.021C317.005 90.0944 328.552 98.0927 324.086 111.316Z" fill="#2F2E41"/>
<path d="M320.055 108.483H285.223V159.246H320.055V108.483Z" fill="#2F2E41"/>
<path d="M275.064 216.531L276.834 229.802L317.973 227.148L315.761 215.204L275.064 216.531Z" fill="#FFB8B8"/>
<path d="M294.527 138.234C294.527 138.234 299.835 152.832 289.661 155.044C279.487 157.256 291.431 166.987 291.431 166.987L307.355 166.103L318.414 163.006L321.953 156.813C321.953 156.813 308.24 149.736 312.221 138.677L294.527 138.234Z" fill="#FFB8B8"/>
<path opacity="0.1" d="M294.527 138.234C294.527 138.234 299.835 152.832 289.661 155.044C279.487 157.256 291.431 166.987 291.431 166.987L307.355 166.103L318.414 163.006L321.953 156.813C321.953 156.813 308.24 149.736 312.221 138.677L294.527 138.234Z" fill="black"/>
<path d="M325.492 196.183L326.377 229.802C326.377 229.802 329.473 236.437 335.666 240.861C341.859 245.284 359.111 251.477 359.111 251.477C359.111 251.477 375.036 270.941 377.248 257.67C379.459 244.4 363.535 242.63 363.535 242.63C363.535 242.63 343.629 226.705 342.302 223.609C340.975 220.512 339.648 201.049 340.09 196.625C340.532 192.202 325.492 196.183 325.492 196.183Z" fill="#FFB8B8"/>
<path d="M259.237 188.933L256.14 218.128L219.867 251.747C219.867 251.747 195.538 266.787 208.809 269.884C222.079 272.98 228.272 257.498 228.272 257.498L267.642 230.956C267.642 230.956 272.798 190.243 271.028 188.474C269.259 186.704 259.237 188.933 259.237 188.933Z" fill="#FFB8B8"/>
<path d="M322.84 155.486C322.84 155.486 312.223 161.679 301.607 159.467C290.99 157.256 289.221 154.159 289.221 154.159C289.221 154.159 275.508 156.371 274.181 161.679C272.854 166.987 274.181 174.95 274.181 174.95C274.181 174.95 262.237 187.778 272.411 203.261L274.623 221.397C274.623 221.397 304.703 216.974 311.781 221.397C318.859 225.821 321.07 222.282 321.07 222.282L325.936 200.606L341.419 166.545C341.419 166.545 341.419 162.122 333.014 159.467C324.609 156.813 322.84 155.486 322.84 155.486Z" fill="#D0CDE1"/>
<path d="M335.667 162.564L341.418 166.988C341.418 166.988 347.168 198.395 342.302 199.279C337.436 200.164 321.512 202.376 321.512 199.279C321.512 196.183 335.667 162.564 335.667 162.564Z" fill="#D0CDE1"/>
<path d="M277.276 159.91H274.179C274.179 159.91 263.563 167.43 261.793 175.835C260.024 184.239 255.158 193.087 259.139 193.971C263.12 194.856 275.064 198.395 276.833 197.068C278.603 195.741 277.276 159.91 277.276 159.91Z" fill="#D0CDE1"/>
<path d="M350.633 315.161H229.283C244.937 279.574 273.297 230.244 273.297 230.244L275.062 223.608L319.024 223.624L320.187 229.803C320.187 229.803 337.04 276.428 350.633 315.161Z" fill="#2F2E41"/>
<path d="M302.791 94.5041C307.433 94.5041 311.197 90.7406 311.197 86.098C311.197 81.4554 307.433 77.6919 302.791 77.6919C298.148 77.6919 294.385 81.4554 294.385 86.098C294.385 90.7406 298.148 94.5041 302.791 94.5041Z" fill="#2F2E41"/>
<path d="M292.705 81.6148C292.705 79.531 293.479 77.5215 294.877 75.9761C296.275 74.4308 298.197 73.4597 300.27 73.2512C299.994 73.2237 299.713 73.2087 299.43 73.2087C297.2 73.2087 295.062 74.0944 293.486 75.6708C291.909 77.2473 291.023 79.3854 291.023 81.6148C291.023 83.8443 291.909 85.9824 293.486 87.5589C295.062 89.1353 297.2 90.021 299.43 90.021C299.713 90.021 299.994 90.006 300.27 89.9785C298.197 89.77 296.275 88.7989 294.877 87.2535C293.479 85.7082 292.705 83.6987 292.705 81.6148V81.6148Z" fill="#2F2E41"/>
<path d="M303.376 147.082C313.637 147.082 321.955 138.764 321.955 128.503C321.955 118.242 313.637 109.924 303.376 109.924C293.115 109.924 284.797 118.242 284.797 128.503C284.797 138.764 293.115 147.082 303.376 147.082Z" fill="#FFB8B8"/>
<path d="M296.609 105.433C296.609 105.433 296.433 104.456 289.569 107.03C282.704 109.605 278.589 128.602 282.021 139.757C283.404 144.253 282.279 147.494 280.443 149.762C273.551 158.272 276.264 171.055 286.302 175.431C286.586 175.555 286.875 175.677 287.17 175.798L291.46 178.372C291.46 178.372 285.991 171.175 288.728 161.969C291.105 154.126 291.399 145.798 289.58 137.806C289.266 136.458 288.909 135.068 288.504 133.65C285.071 121.637 286.741 123.024 298.754 111.011C298.754 111.011 305.619 116.159 311.626 118.734C317.633 121.308 322.781 123.882 318.491 132.463C314.2 141.044 303.903 148.767 310.768 159.923C317.633 171.078 318.491 166.788 317.633 171.078L316.774 175.369L321.923 170.22L318.491 177.085C318.491 177.085 329.646 177.085 333.078 168.504L334.795 170.22C334.795 170.22 341.66 158.206 328.788 147.051C328.788 147.051 324.497 144.477 330.504 135.896C336.511 127.315 331.898 108.865 324.175 105.433C316.452 102.001 296.609 105.433 296.609 105.433Z" fill="#2F2E41"/>
<path d="M184.95 13.3265C168.242 12.166 151.552 15.8323 136.868 23.8889C126.552 29.5754 116.572 39.1831 117.134 50.9492C117.603 60.7637 125.284 68.6661 133.26 74.4034C144.386 82.3952 156.955 88.1539 170.273 91.3605C175.095 92.5186 180.069 93.3611 184.492 95.6061C189.158 97.9748 192.941 101.777 196.261 105.822C210.15 122.744 216.91 147.454 206.886 166.916C201.953 176.494 193.57 183.823 184.84 190.137C178.806 194.5 172.403 198.6 167.794 204.448C164.462 208.688 162.21 213.675 161.234 218.978C158.839 232.079 164.997 246.065 175.614 254.105C186.232 262.144 200.692 264.385 213.602 261.116" fill="#3F3D56"/>
<path d="M184.839 26.999C192.295 26.999 198.339 20.955 198.339 13.4995C198.339 6.04392 192.295 0 184.839 0C177.384 0 171.34 6.04392 171.34 13.4995C171.34 20.955 177.384 26.999 184.839 26.999Z" fill="#1C3F43"/>
<path d="M469.854 282.035C468.453 294.315 464.392 305.54 459.491 315.161H418.821C415.431 303.577 413.271 289.953 414.891 275.763C415.75 268.493 417.481 261.353 420.047 254.496C430.197 226.989 450.405 208.546 450.405 208.546C450.405 208.546 474.288 243.183 469.854 282.035Z" fill="#3F3D56"/>
<path d="M440.041 315.161H392.762C388.21 309.382 384.375 303.072 381.339 296.371C365.358 260.675 377.648 220.436 377.648 220.436C377.648 220.436 402.087 231.719 420.047 254.496C424.754 260.407 428.713 266.877 431.833 273.759C438.1 287.762 440.026 302.461 440.041 315.161Z" fill="#1C3F43"/>
</svg>
