<svg width="70" height="69" viewBox="0 0 70 69" fill="none" xmlns="http://www.w3.org/2000/svg">
<path d="M35 0.598145C15.6653 0.598145 0 15.8494 0 34.673C0 53.4966 15.6653 68.7478 35 68.7478C54.3347 68.7478 70 53.4966 70 34.673C70 15.8494 54.3347 0.598145 35 0.598145ZM48.053 43.6039L45.2304 47.0388C45.0452 47.2643 44.8162 47.452 44.5564 47.5913C44.2967 47.7306 44.0113 47.8187 43.7165 47.8506C43.4218 47.8825 43.1235 47.8576 42.8386 47.7772C42.5538 47.6969 42.288 47.5627 42.0564 47.3823L32.6008 40.5509C31.9401 40.0359 31.4068 39.3829 31.0404 38.6401C30.674 37.8974 30.4838 37.0839 30.4839 36.2599V14.8876C30.4839 14.3045 30.7218 13.7454 31.1452 13.3331C31.5687 12.9208 32.1431 12.6892 32.7419 12.6892H37.2581C37.8569 12.6892 38.4313 12.9208 38.8548 13.3331C39.2782 13.7454 39.5161 14.3045 39.5161 14.8876V34.673L47.7016 40.5124C47.9333 40.6929 48.1262 40.916 48.2692 41.1691C48.4123 41.4221 48.5027 41.7001 48.5354 41.9872C48.568 42.2743 48.5422 42.5649 48.4594 42.8423C48.3767 43.1197 48.2386 43.3785 48.053 43.6039Z" fill="#1C3F43"/>
</svg>
