<svg width="31" height="27" viewBox="0 0 31 27" fill="none" xmlns="http://www.w3.org/2000/svg">
<path d="M30.6511 23.2038C31.6445 24.891 30.3976 27 28.4134 27H2.58625C0.598326 27 -0.642858 24.8877 0.348604 23.2038L13.2624 1.26483C14.2562 -0.42314 16.7456 -0.420082 17.7377 1.26483L30.6511 23.2038ZM15.5 18.668C14.1327 18.668 13.0243 19.754 13.0243 21.0938C13.0243 22.4335 14.1327 23.5195 15.5 23.5195C16.8673 23.5195 17.9757 22.4335 17.9757 21.0938C17.9757 19.754 16.8673 18.668 15.5 18.668ZM13.1496 9.94855L13.5488 17.1204C13.5675 17.456 13.8507 17.7188 14.1937 17.7188H16.8064C17.1494 17.7188 17.4326 17.456 17.4512 17.1204L17.8505 9.94855C17.8706 9.58606 17.5761 9.28125 17.2056 9.28125H13.7944C13.4239 9.28125 13.1294 9.58606 13.1496 9.94855Z" fill="#FAB44D" fill-opacity="0.3"/>
</svg>
